<?xml version="1.0" encoding="utf-8"?>
<!-- Generator: Adobe Illustrator 24.3.0, SVG Export Plug-In . SVG Version: 6.00 Build 0)  -->
<svg version="1.1" id="Layer_1" xmlns="http://www.w3.org/2000/svg" xmlns:xlink="http://www.w3.org/1999/xlink" x="0px" y="0px"
	 viewBox="0 0 879.99 386.53" style="enable-background:new 0 0 879.99 386.53;" xml:space="preserve">
<style type="text/css">
	.st0{fill:url(#SVGID_1_);}
	.st1{fill:url(#SVGID_2_);}
	.st2{fill:#1C1C1B;}
	.st3{fill:#3D3C3C;}
	.st4{fill:#EC1C24;}
	.st5{fill:#F8BB15;}
</style>
<g>
	<g>
		<g>
			<g>
				
					<linearGradient id="SVGID_1_" gradientUnits="userSpaceOnUse" x1="3852.8777" y1="735.791" x2="3906.5586" y2="735.791" gradientTransform="matrix(-0.9414 0.3374 -0.3374 -0.9414 4205.6626 -527.269)">
					<stop  offset="0" style="stop-color:#F8BB15"/>
					<stop  offset="1" style="stop-color:#EC1C24"/>
				</linearGradient>
				<path class="st0" d="M282.08,102.86c-0.35-0.04-0.61-0.35-0.58-0.71c0.3-3.23,2.42-5.46,6.35-6.63c0.53-0.16,1.08-0.3,1.61-0.44
					c1.34-0.34,2.6-0.68,3.77-1.26c2.35-1.18,3.75-3.18,5.23-5.29c0.35-0.52,0.74-1.05,1.12-1.57c1.7-2.27,4.64-3.69,8.29-3.97
					c4.02-0.31,8.06-0.12,11.98,0.06c3.71,0.18,7.55,0.37,11.3,0.1c0.35-0.03,0.68,0.25,0.71,0.61c0.03,0.37-0.25,0.68-0.61,0.71
					c-3.83,0.27-7.71,0.07-11.46-0.1c-3.87-0.19-7.89-0.38-11.82-0.07c-1.89,0.15-5.36,0.8-7.33,3.46c-0.38,0.5-0.74,1.03-1.11,1.54
					c-1.51,2.16-3.07,4.37-5.72,5.72c-1.28,0.65-2.69,1.02-4.03,1.36c-0.52,0.13-1.05,0.27-1.57,0.43c-3.41,1-5.17,2.79-5.42,5.48
					c-0.03,0.37-0.35,0.64-0.71,0.59C282.1,102.86,282.08,102.86,282.08,102.86z"/>
			</g>
			<g>
				
					<linearGradient id="SVGID_2_" gradientUnits="userSpaceOnUse" x1="3904.4778" y1="725.6943" x2="3911.7573" y2="725.6943" gradientTransform="matrix(-0.9414 0.3374 -0.3374 -0.9414 4205.6626 -527.269)">
					<stop  offset="0" style="stop-color:#F8BB15"/>
					<stop  offset="1" style="stop-color:#EC1C24"/>
				</linearGradient>
				<path class="st1" d="M284.31,104.07c0.41,1.58,0.52,3.23,0.55,4.86c0.01,0.95,0.18,1.89,0.16,2.84c0,0.44-0.04,1-0.24,1.4
					c-0.46,0.93-0.9,0.3-1.17-0.35c0.13,0.32-0.34,0.96-0.68,1c-0.46,0.06-0.8-0.59-1.37-0.44c-0.72,0.18-1.28,0.97-1.64-0.07
					c-0.71-2.02-0.44-4.3-0.15-6.37c0.21-1.4,0.25-4.55,1.85-5.17c0.68-0.27,1.37-0.15,1.86,0.41c0.27,0.3,0.43,0.66,0.56,1.05
					C284.15,103.5,284.24,103.79,284.31,104.07z"/>
			</g>
		</g>
		<g>
			<path class="st2" d="M328.4,113.79c14.65-0.37,26.39-5.8,26.23-12.16c0.07,3.16,0.15,6.16,0.16,6.26
				c0.16,6.34-11.58,11.79-26.23,12.16s-26.64-4.48-26.81-10.83c0-0.1-0.07-3.09-0.16-6.26
				C301.76,109.32,313.75,114.16,328.4,113.79z"/>
		</g>
		<g>
			<g>
				<path class="st3" d="M375.18,82.48l-45.33-16.66c-1.73-0.64-3.63-0.59-5.32,0.13L280.1,84.86c-0.86,0.37-0.83,1.6,0.04,1.92
					l45.33,16.66c1.73,0.64,3.63,0.59,5.32-0.13l44.43-18.91C376.09,84.03,376.06,82.8,375.18,82.48z"/>
			</g>
			<g>
				<path class="st2" d="M301.4,95.46c-0.16-6.34,11.58-11.79,26.23-12.16c14.65-0.37,26.64,4.48,26.81,10.83
					c0,0.22,0.34,13.54,0.34,13.77c0.16,6.34-11.58,11.79-26.23,12.16s-26.64-4.48-26.81-10.83
					C301.74,109.02,301.4,95.68,301.4,95.46z"/>
			</g>
			<g>
				
					<ellipse transform="matrix(0.9997 -0.025 0.025 0.9997 -2.5534 8.2384)" class="st3" cx="328.21" cy="106.24" rx="24.96" ry="7.59"/>
			</g>
		</g>
	</g>
	<path class="st4" d="M235.06,100.16c-14.96,0-27.1,12.13-27.1,27.1v97.27c0,21.64-17.55,39.18-39.18,39.18l0,0
		c-21.64,0-39.18-17.55-39.18-39.18v-97.27c0-14.96-12.13-27.1-27.1-27.1l0,0c-14.96,0-27.1,12.13-27.1,27.1v100.49
		c0,51.58,41.81,93.37,93.37,93.37l0,0c51.58,0,93.37-41.81,93.37-93.37V127.26C262.15,112.28,250.02,100.16,235.06,100.16
		L235.06,100.16z"/>
	<path class="st5" d="M501.38,266.97c-20.85,0-39.05-11.33-48.78-28.17c-2.44-4.21-4.34-8.77-5.63-13.59
		c-1.26-4.65-1.91-9.54-1.91-14.58c0-5.04,0.66-9.93,1.91-14.58c1.28-4.81,3.19-9.36,5.63-13.59c9.73-16.84,27.93-28.17,48.78-28.17
		c14.22,0,27.22,5.27,37.13,13.97c8.64,7.59,21.22,8.65,31.18,2.91l0,0c16.11-9.3,18.24-31.7,4.21-43.91
		c-19.41-16.9-44.77-27.13-72.53-27.13c-40.88,0-76.59,22.21-95.69,55.24c-4.79,8.27-8.54,17.21-11.05,26.66
		c-2.44,9.13-3.74,18.71-3.74,28.61s1.3,19.48,3.74,28.61c2.53,9.44,6.26,18.39,11.05,26.66c19.11,33.02,54.81,55.24,95.69,55.24
		c27.75,0,53.13-10.24,72.53-27.13c14.03-12.21,11.9-34.61-4.21-43.91l0,0c-9.95-5.75-22.54-4.68-31.18,2.91
		C528.6,261.69,515.61,266.97,501.38,266.97z"/>
	<path class="st5" d="M722.76,266.97c-20.85,0-39.05-11.33-48.78-28.17c-2.44-4.21-4.34-8.77-5.63-13.59
		c-1.26-4.65-1.91-9.54-1.91-14.58c0-5.04,0.66-9.93,1.91-14.58c1.28-4.81,3.19-9.36,5.63-13.59c9.73-16.84,27.93-28.17,48.78-28.17
		c14.22,0,27.22,5.27,37.13,13.97c8.64,7.59,21.22,8.65,31.18,2.91l0,0c16.11-9.3,18.24-31.7,4.21-43.91
		c-19.41-16.9-44.77-27.13-72.53-27.13c-40.88,0-76.59,22.21-95.69,55.24c-4.79,8.27-8.54,17.21-11.05,26.66
		c-2.44,9.13-3.74,18.71-3.74,28.61s1.3,19.48,3.74,28.61c2.53,9.44,6.26,18.39,11.05,26.66c19.11,33.02,54.81,55.24,95.69,55.24
		c27.75,0,53.13-10.24,72.53-27.13c14.03-12.21,11.9-34.61-4.21-43.91l0,0c-9.95-5.75-22.54-4.68-31.18,2.91
		C749.98,261.69,737,266.97,722.76,266.97z"/>
	<path class="st4" d="M327.68,100.25l-27.06,15.61v189.55l27.06,15.63h0.04V100.25H327.68z M312.41,302.55
		c0,0.49-0.35,0.8-0.78,0.69l-3.9-0.96c-0.43-0.1-0.77-0.58-0.77-1.06v-9.61c0-0.49,0.34-0.8,0.77-0.69l3.9,0.89
		c0.43,0.1,0.78,0.58,0.78,1.06V302.55z M312.41,286.52c0,0.49-0.35,0.8-0.78,0.71l-3.9-0.86c-0.43-0.09-0.77-0.56-0.77-1.05v-9.61
		c0-0.49,0.34-0.8,0.77-0.72l3.9,0.78c0.43,0.09,0.78,0.55,0.78,1.03V286.52z M312.41,270.48c0,0.49-0.35,0.81-0.78,0.72l-3.9-0.75
		c-0.43-0.09-0.77-0.55-0.77-1.02v-9.61c0-0.49,0.34-0.81,0.77-0.74l3.9,0.66c0.43,0.07,0.78,0.53,0.78,1.02V270.48z M312.41,254.44
		c0,0.49-0.35,0.83-0.78,0.75l-3.9-0.64c-0.43-0.07-0.77-0.52-0.77-1v-9.61c0-0.49,0.34-0.83,0.77-0.77l3.9,0.56
		c0.43,0.06,0.78,0.5,0.78,0.99V254.44z M312.41,238.4c0,0.49-0.35,0.83-0.78,0.77l-3.9-0.53c-0.43-0.06-0.77-0.5-0.77-0.97v-9.61
		c0-0.49,0.34-0.83,0.77-0.78l3.9,0.46c0.43,0.04,0.78,0.49,0.78,0.97V238.4z M312.41,222.36c0,0.49-0.35,0.84-0.78,0.8l-3.9-0.43
		c-0.43-0.04-0.77-0.47-0.77-0.96v-9.61c0-0.49,0.34-0.84,0.77-0.8l3.9,0.34c0.43,0.04,0.78,0.46,0.78,0.95V222.36z M312.41,206.32
		c0,0.49-0.35,0.86-0.78,0.81l-3.9-0.31c-0.43-0.03-0.77-0.46-0.77-0.93v-9.61c0-0.49,0.34-0.86,0.77-0.83l3.9,0.24
		c0.43,0.03,0.78,0.44,0.78,0.93V206.32z M312.41,190.28c0,0.49-0.35,0.86-0.78,0.84l-3.9-0.21c-0.43-0.03-0.77-0.43-0.77-0.92
		v-9.61c0-0.49,0.34-0.86,0.77-0.84l3.9,0.13c0.43,0.01,0.78,0.41,0.78,0.9V190.28z M312.41,174.24c0,0.49-0.35,0.87-0.78,0.86
		l-3.9-0.1c-0.43-0.01-0.77-0.41-0.77-0.89v-9.61c0-0.49,0.34-0.87,0.77-0.87l3.9,0.01c0.43,0,0.78,0.4,0.78,0.89V174.24z
		 M312.41,158.2c0,0.49-0.35,0.89-0.78,0.89l-3.9,0.01c-0.43,0-0.77-0.38-0.77-0.87v-9.61c0-0.49,0.34-0.89,0.77-0.89l3.9-0.09
		c0.43-0.01,0.78,0.38,0.78,0.86V158.2z M312.41,142.16c0,0.49-0.35,0.89-0.78,0.9l-3.9,0.12c-0.43,0.01-0.77-0.37-0.77-0.86v-9.61
		c0-0.49,0.34-0.89,0.77-0.92l3.9-0.19c0.43-0.01,0.78,0.35,0.78,0.84V142.16z M312.41,126.12c0,0.49-0.35,0.9-0.78,0.93l-3.9,0.22
		c-0.43,0.03-0.77-0.34-0.77-0.83v-9.61c0-0.49,0.34-0.9,0.77-0.93l3.9-0.31c0.43-0.03,0.78,0.34,0.78,0.83V126.12z M321.28,304.73
		c0,0.49-0.37,0.81-0.81,0.69l-4.02-0.99c-0.44-0.1-0.8-0.59-0.8-1.08v-9.75c0-0.49,0.35-0.81,0.8-0.71l4.02,0.92
		c0.44,0.1,0.81,0.59,0.81,1.08V304.73z M321.28,288.46c0,0.49-0.37,0.81-0.81,0.72l-4.02-0.89c-0.44-0.1-0.8-0.58-0.8-1.06v-9.75
		c0-0.49,0.35-0.81,0.8-0.72l4.02,0.8c0.44,0.09,0.81,0.56,0.81,1.06V288.46z M321.28,272.17c0,0.49-0.37,0.83-0.81,0.74l-4.02-0.77
		c-0.44-0.09-0.8-0.55-0.8-1.03v-9.75c0-0.49,0.35-0.83,0.8-0.75l4.02,0.69c0.44,0.07,0.81,0.55,0.81,1.03V272.17z M321.28,255.87
		c0,0.49-0.37,0.84-0.81,0.77l-4.02-0.66c-0.44-0.07-0.8-0.53-0.8-1.02v-9.75c0-0.49,0.35-0.84,0.8-0.77l4.02,0.58
		c0.44,0.06,0.81,0.52,0.81,1.02V255.87z M321.28,239.6c0,0.49-0.37,0.84-0.81,0.78l-4.02-0.55c-0.44-0.06-0.8-0.5-0.8-0.99v-9.75
		c0-0.49,0.35-0.84,0.8-0.8l4.02,0.47c0.44,0.06,0.81,0.5,0.81,0.99V239.6z M321.28,223.31c0,0.49-0.37,0.86-0.81,0.81l-4.02-0.44
		c-0.44-0.04-0.8-0.49-0.8-0.97v-9.75c0-0.49,0.35-0.86,0.8-0.81l4.02,0.35c0.44,0.04,0.81,0.47,0.81,0.96V223.31z M321.28,207.02
		c0,0.49-0.37,0.87-0.81,0.83l-4.02-0.32c-0.44-0.03-0.8-0.46-0.8-0.95v-9.75c0-0.49,0.35-0.87,0.8-0.84l4.02,0.25
		c0.44,0.03,0.81,0.44,0.81,0.95V207.02z M321.28,190.74c0,0.49-0.37,0.87-0.81,0.86l-4.02-0.21c-0.44-0.03-0.8-0.44-0.8-0.93v-9.75
		c0-0.49,0.35-0.87,0.8-0.86l4.02,0.13c0.44,0.01,0.81,0.43,0.81,0.92V190.74z M321.28,174.45c0,0.49-0.37,0.89-0.81,0.87l-4.02-0.1
		c-0.44-0.01-0.8-0.41-0.8-0.9v-9.75c0-0.49,0.35-0.89,0.8-0.89l4.02,0.01c0.44,0,0.81,0.4,0.81,0.9V174.45z M321.28,158.16
		c0,0.49-0.37,0.9-0.81,0.9l-4.02,0.01c-0.44,0-0.8-0.4-0.8-0.89v-9.75c0-0.49,0.35-0.9,0.8-0.9l4.02-0.09
		c0.44-0.01,0.81,0.38,0.81,0.87V158.16z M321.28,141.88c0,0.49-0.37,0.9-0.81,0.92l-4.02,0.12c-0.44,0.01-0.8-0.37-0.8-0.86v-9.75
		c0-0.49,0.35-0.9,0.8-0.93l4.02-0.21c0.44-0.03,0.81,0.35,0.81,0.86V141.88z M321.28,125.59c0,0.49-0.37,0.92-0.81,0.95l-4.02,0.24
		c-0.44,0.03-0.8-0.35-0.8-0.84v-9.75c0-0.49,0.35-0.92,0.8-0.95l4.02-0.31c0.44-0.03,0.81,0.34,0.81,0.83V125.59z"/>
	<path class="st5" d="M327.72,100.25h-0.04v220.79h0.04l27.06-15.63V115.86L327.72,100.25z M339.73,303.36
		c0,0.49-0.35,0.97-0.8,1.08l-4.02,0.99c-0.44,0.12-0.81-0.21-0.81-0.69v-9.85c0-0.49,0.37-0.97,0.81-1.08l4.02-0.92
		c0.44-0.1,0.8,0.22,0.8,0.71V303.36z M339.73,287.23c0,0.49-0.35,0.96-0.8,1.06l-4.02,0.89c-0.44,0.1-0.81-0.22-0.81-0.72v-9.85
		c0-0.49,0.37-0.97,0.81-1.06l4.02-0.8c0.44-0.09,0.8,0.24,0.8,0.72V287.23z M339.73,271.1c0,0.49-0.35,0.96-0.8,1.03l-4.02,0.77
		c-0.44,0.09-0.81-0.25-0.81-0.74v-9.85c0-0.49,0.37-0.96,0.81-1.03l4.02-0.69c0.44-0.07,0.8,0.27,0.8,0.75V271.1z M339.73,254.97
		c0,0.49-0.35,0.95-0.8,1.02l-4.02,0.66c-0.44,0.07-0.81-0.27-0.81-0.77v-9.85c0-0.49,0.37-0.95,0.81-1.02l4.02-0.58
		c0.44-0.06,0.8,0.28,0.8,0.77V254.97z M339.73,238.83c0,0.49-0.35,0.93-0.8,0.99l-4.02,0.55c-0.44,0.06-0.81-0.3-0.81-0.78v-9.85
		c0-0.49,0.37-0.93,0.81-0.99l4.02-0.47c0.44-0.04,0.8,0.31,0.8,0.8V238.83z M339.73,222.7c0,0.49-0.35,0.93-0.8,0.97l-4.02,0.44
		c-0.44,0.04-0.81-0.31-0.81-0.81v-9.85c0-0.49,0.37-0.93,0.81-0.96l4.02-0.35c0.44-0.04,0.8,0.32,0.8,0.81V222.7z M339.73,206.57
		c0,0.49-0.35,0.92-0.8,0.95l-4.02,0.32c-0.44,0.03-0.81-0.34-0.81-0.83v-9.85c0-0.49,0.37-0.92,0.81-0.95l4.02-0.25
		c0.44-0.03,0.8,0.35,0.8,0.84V206.57z M339.73,190.45c0,0.49-0.35,0.9-0.8,0.93l-4.02,0.21c-0.44,0.03-0.81-0.35-0.81-0.86v-9.85
		c0-0.49,0.37-0.9,0.81-0.92l4.02-0.13c0.44-0.01,0.8,0.37,0.8,0.86V190.45z M339.73,174.32c0,0.49-0.35,0.9-0.8,0.9l-4.02,0.1
		c-0.44,0.01-0.81-0.38-0.81-0.87v-9.85c0-0.49,0.37-0.9,0.81-0.9l4.02-0.01c0.44,0,0.8,0.4,0.8,0.89V174.32z M339.73,158.19
		c0,0.49-0.35,0.89-0.8,0.89l-4.02-0.01c-0.44,0-0.81-0.4-0.81-0.9v-9.85c0-0.49,0.37-0.89,0.81-0.87l4.02,0.09
		c0.44,0.01,0.8,0.41,0.8,0.9V158.19z M339.73,142.06c0,0.49-0.35,0.87-0.8,0.86l-4.02-0.12c-0.44-0.01-0.81-0.43-0.81-0.92v-9.85
		c0-0.49,0.37-0.87,0.81-0.86l4.02,0.21c0.44,0.03,0.8,0.44,0.8,0.93V142.06z M339.73,125.93c0,0.49-0.35,0.87-0.8,0.84l-4.02-0.24
		c-0.44-0.03-0.81-0.44-0.81-0.95v-9.85c0-0.49,0.37-0.87,0.81-0.83l4.02,0.31c0.44,0.03,0.8,0.46,0.8,0.95V125.93z M348.44,301.22
		c0,0.49-0.34,0.96-0.77,1.06l-3.9,0.96c-0.43,0.1-0.78-0.21-0.78-0.69v-9.7c0-0.49,0.35-0.96,0.78-1.06l3.9-0.89
		c0.43-0.1,0.77,0.22,0.77,0.69V301.22z M348.44,285.32c0,0.49-0.34,0.95-0.77,1.05l-3.9,0.86c-0.43,0.09-0.78-0.22-0.78-0.71v-9.7
		c0-0.49,0.35-0.95,0.78-1.03l3.9-0.78c0.43-0.09,0.77,0.24,0.77,0.72V285.32z M348.44,269.43c0,0.49-0.34,0.95-0.77,1.02l-3.9,0.75
		c-0.43,0.09-0.78-0.25-0.78-0.72v-9.7c0-0.49,0.35-0.95,0.78-1.02l3.9-0.66c0.43-0.07,0.77,0.25,0.77,0.74V269.43z M348.44,253.56
		c0,0.49-0.34,0.93-0.77,1l-3.9,0.64c-0.43,0.07-0.78-0.27-0.78-0.75v-9.7c0-0.49,0.35-0.93,0.78-0.99l3.9-0.56
		c0.43-0.06,0.77,0.28,0.77,0.77V253.56z M348.44,237.66c0,0.49-0.34,0.92-0.77,0.97l-3.9,0.53c-0.43,0.06-0.78-0.28-0.78-0.77v-9.7
		c0-0.49,0.35-0.92,0.78-0.97l3.9-0.46c0.43-0.04,0.77,0.3,0.77,0.78V237.66z M348.44,221.77c0,0.49-0.34,0.92-0.77,0.96l-3.9,0.43
		c-0.43,0.04-0.78-0.31-0.78-0.8v-9.7c0-0.49,0.35-0.92,0.78-0.95l3.9-0.34c0.43-0.04,0.77,0.32,0.77,0.8V221.77z M348.44,205.89
		c0,0.49-0.34,0.9-0.77,0.93l-3.9,0.31c-0.43,0.03-0.78-0.32-0.78-0.81v-9.7c0-0.49,0.35-0.9,0.78-0.93l3.9-0.24
		c0.43-0.03,0.77,0.34,0.77,0.83V205.89z M348.44,190c0,0.49-0.34,0.89-0.77,0.92l-3.9,0.21c-0.43,0.03-0.78-0.35-0.78-0.84v-9.7
		c0-0.49,0.35-0.89,0.78-0.9l3.9-0.13c0.43-0.01,0.77,0.37,0.77,0.84V190z M348.44,174.11c0,0.49-0.34,0.89-0.77,0.89l-3.9,0.1
		c-0.43,0.01-0.78-0.37-0.78-0.86v-9.7c0-0.49,0.35-0.89,0.78-0.89l3.9-0.01c0.43,0,0.77,0.38,0.77,0.87V174.11z M348.44,158.23
		c0,0.49-0.34,0.87-0.77,0.87l-3.9-0.01c-0.43,0-0.78-0.4-0.78-0.89v-9.7c0-0.49,0.35-0.87,0.78-0.86l3.9,0.09
		c0.43,0.01,0.77,0.41,0.77,0.89V158.23z M348.44,142.34c0,0.49-0.34,0.86-0.77,0.86l-3.9-0.12c-0.43-0.01-0.78-0.41-0.78-0.9v-9.7
		c0-0.49,0.35-0.87,0.78-0.84l3.9,0.19c0.43,0.01,0.77,0.43,0.77,0.92V142.34z M348.44,126.45c0,0.49-0.34,0.86-0.77,0.83l-3.9-0.22
		c-0.43-0.03-0.78-0.44-0.78-0.93v-9.7c0-0.49,0.35-0.86,0.78-0.83l3.9,0.31c0.43,0.03,0.77,0.46,0.77,0.93V126.45z"/>
</g>
</svg>
